<svg xmlns="http://www.w3.org/2000/svg" width="64" height="64" viewBox="0 0 16 16" role="img" aria-label="Kolb-Bot skull">
  <rect width="16" height="16" fill="none"/>
  <!-- skull outline -->
  <g fill="#4A0080">
    <rect x="4" y="1" width="8" height="1"/>
    <rect x="3" y="2" width="1" height="1"/>
    <rect x="12" y="2" width="1" height="1"/>
    <rect x="2" y="3" width="1" height="5"/>
    <rect x="13" y="3" width="1" height="5"/>
    <rect x="3" y="8" width="1" height="1"/>
    <rect x="12" y="8" width="1" height="1"/>
    <rect x="4" y="9" width="1" height="1"/>
    <rect x="11" y="9" width="1" height="1"/>
    <rect x="5" y="10" width="1" height="1"/>
    <rect x="10" y="10" width="1" height="1"/>
    <rect x="5" y="13" width="6" height="1"/>
  </g>
  <!-- skull fill -->
  <g fill="#9B30FF">
    <rect x="4" y="2" width="8" height="1"/>
    <rect x="3" y="3" width="10" height="1"/>
    <rect x="3" y="4" width="10" height="1"/>
    <rect x="3" y="5" width="10" height="1"/>
    <rect x="3" y="6" width="10" height="1"/>
    <rect x="3" y="7" width="10" height="1"/>
    <rect x="4" y="8" width="8" height="1"/>
    <rect x="5" y="9" width="6" height="1"/>
  </g>
  <!-- eyes -->
  <g fill="#FFB300">
    <rect x="4" y="4" width="2" height="2"/>
    <rect x="10" y="4" width="2" height="2"/>
  </g>
  <!-- eye pupils -->
  <g fill="#1a0033">
    <rect x="5" y="4" width="1" height="1"/>
    <rect x="10" y="4" width="1" height="1"/>
  </g>
  <!-- nose -->
  <g fill="#7B1FA2">
    <rect x="7" y="6" width="2" height="1"/>
  </g>
  <!-- teeth / jaw -->
  <g fill="#BA55D3">
    <rect x="6" y="10" width="4" height="1"/>
    <rect x="6" y="11" width="1" height="2"/>
    <rect x="8" y="11" width="1" height="2"/>
    <rect x="9" y="11" width="1" height="2"/>
    <rect x="7" y="12" width="1" height="1"/>
  </g>
  <!-- crossbones -->
  <g fill="#FFB300">
    <rect x="2" y="12" width="1" height="1"/>
    <rect x="3" y="13" width="1" height="1"/>
    <rect x="4" y="14" width="1" height="1"/>
    <rect x="11" y="14" width="1" height="1"/>
    <rect x="12" y="13" width="1" height="1"/>
    <rect x="13" y="12" width="1" height="1"/>
    <rect x="2" y="14" width="1" height="1"/>
    <rect x="3" y="13" width="1" height="1"/>
    <rect x="13" y="14" width="1" height="1"/>
  </g>
</svg>
